<?xml version="1.0" encoding="utf-8"?>
<!DOCTYPE svg PUBLIC "-//W3C//DTD SVG 1.0//EN" "http://www.w3.org/TR/2001/REC-SVG-20010904/DTD/svg10.dtd">
<svg version="1.0" xmlns="http://www.w3.org/2000/svg" width="2428px" height="1725px" viewBox="0 0 2428 1725" preserveAspectRatio="xMidYMid meet">
 <g fill="#fefefe">
  <path d="M0 862.58 l0 -862.58 601.01 0 c586.63 0 601.01 0 601.01 3.79 0 2 -1.20 4.79 -2.80 5.99 -5.39 4.39 -13.18 25.76 -16.17 44.33 -1.80 10.38 -4.79 35.34 -6.59 55.71 l-3.39 36.94 -10.98 0 c-5.99 -0.20 -28.55 -3.99 -49.92 -8.99 -59.90 -13.38 -75.68 -12.38 -99.44 5.39 -9.18 6.79 -19.77 23.96 -23.36 37.74 -5.19 19.97 0 32.35 39.53 96.04 16.57 26.56 21.36 35.74 21.36 41.13 0 8.19 7.19 6.39 -58.30 14.38 -44.73 5.59 -54.71 7.79 -68.29 15.77 -17.77 10.38 -31.75 33.35 -31.95 52.11 -0.40 23.16 15.57 42.73 70.28 86.86 27.35 22.16 28.35 23.16 27.95 29.75 -0.60 7.79 6.39 5.19 -73.28 27.35 -25.76 6.99 -51.12 15.37 -56.51 18.17 -20.77 11.38 -36.14 34.74 -36.34 55.51 -0.40 24.56 11.58 39.73 67.69 87.86 15.37 12.98 28.55 24.76 29.35 25.76 2.40 3.39 1.80 13.78 -1.20 18.97 -1.80 3.19 -6.39 5.99 -14.38 8.59 -6.59 2 -33.74 10.38 -60.70 18.77 -26.96 8.39 -54.11 17.97 -60.50 21.36 -33.35 17.57 -47.92 54.51 -33.94 85.86 4.99 10.98 38.74 59.50 64.69 92.65 10.98 13.98 12.58 22.36 6.39 32.75 -3 4.99 -4.59 5.79 -12.58 5.79 -4.99 0 -27.55 -5.39 -50.92 -12.18 -50.72 -14.58 -59.10 -15.18 -77.67 -5.99 -14.78 7.19 -23.76 16.37 -30.75 31.95 -6.99 15.18 -7.59 31.55 -2.60 65.09 5.79 38.14 5.79 36.94 -3.19 36.94 -7.59 -0.20 -7.79 -0.40 -24.56 -26.16 -25.36 -39.14 -44.53 -54.71 -67.89 -54.51 -19.57 0 -40.53 14.38 -50.92 34.54 -4.99 9.78 -13.58 37.74 -19.77 63.50 l-3.59 14.18 -18.17 0.80 c-21.17 0.80 -33.54 5.59 -43.73 17.37 -16.77 19.17 -17.37 35.94 -2.60 68.49 28.35 62.50 46.12 92.25 75.28 126.39 41.93 49.12 88.85 84.66 149.95 113.81 38.54 18.37 96.04 35.74 136.18 40.73 9.98 1.20 21.76 2.80 26.56 3.39 4.59 0.60 8.39 2 8.39 3.19 0 1 4.39 11.98 9.78 24.36 5.39 12.18 17.17 39.34 26.16 60.10 8.99 20.97 22.16 50.92 29.15 66.69 6.99 15.77 12.78 30.35 12.78 32.35 0 3.79 -9.58 3.79 -443.27 3.79 l-443.27 0 0 -862.58z"/>
  <path d="M1214.20 1718.37 c-5.59 -8.99 -22.36 -24.36 -30.95 -28.55 -3.99 -1.80 -7.79 -5.19 -8.39 -7.39 -0.80 -2.40 -12.98 -28.35 -26.96 -57.90 -14.18 -29.35 -25.76 -56.11 -25.76 -59.10 0 -4.99 1.60 -6.39 16.57 -13.58 8.99 -4.39 22.36 -12.58 29.75 -18.17 9.38 -7.19 15.18 -10.18 19.57 -10.18 5.59 0 6.79 1 10.38 9.58 11.98 27.35 70.88 156.94 76.67 168.52 3.79 7.39 6.79 15.77 6.79 18.57 l0 4.99 -31.75 0 -31.75 0 -4.19 -6.79z"/>
  <path d="M1629.12 1712.58 c-9.98 -13.58 -25.56 -25.36 -39.53 -29.55 -4.59 -1.40 -9.78 -4.39 -11.18 -6.59 -1.60 -2.40 -17.57 -34.74 -35.74 -72.28 -21.17 -43.53 -33.15 -70.28 -33.15 -74.28 0 -4.99 2.80 -8.99 14.38 -20.77 43.53 -44.13 68.49 -114.01 61.50 -172.92 -5.99 -49.92 -24.56 -90.65 -60.30 -132.38 -7.59 -8.59 -9.58 -12.58 -9.58 -18.17 l0 -6.99 20.57 -5.39 c11.18 -2.80 62.70 -15.97 114.21 -29.15 98.84 -25.36 113.61 -30.35 129.99 -44.73 11.18 -9.58 21.56 -25.56 26.76 -41.33 5.99 -17.37 4.99 -26.76 -10.98 -94.44 -7.19 -30.75 -12.98 -58.30 -12.98 -61.10 0 -3.99 2.60 -7.59 9.98 -13.78 13.58 -11.58 23.16 -25.96 28.95 -44.53 6.99 -21.96 7.99 -36.94 4.19 -59.10 -7.99 -45.72 -30.15 -80.47 -61.10 -95.04 -10.78 -5.19 -15.97 -6.39 -30.15 -6.79 l-17.37 -0.80 -10.18 -42.13 c-5.59 -23.36 -10.18 -46.32 -9.98 -51.32 0 -8.79 0.40 -9.38 15.18 -20.77 36.54 -28.75 61.90 -72.68 72.68 -125.59 3.99 -20.57 3.99 -22.16 1.20 -44.73 -5.59 -42.13 -19.57 -78.87 -41.73 -108.82 -14.58 -19.77 -44.13 -46.92 -64.49 -58.90 -27.75 -16.57 -63.10 -28.75 -92.05 -31.75 -6.79 -0.80 -13.18 -1.80 -14.18 -2.60 -1 -0.60 -5.79 -6.99 -10.98 -14.18 -44.53 -62.90 -114.01 -99.64 -195.88 -103.23 l-27.55 -1.20 -12.18 -14.18 c-6.79 -7.79 -21.17 -23.76 -31.95 -35.54 -10.78 -11.58 -19.57 -22.56 -19.57 -24.36 0 -3 49.52 -3.19 576.05 -3.19 l576.05 0 0 862.58 0 862.58 -394.95 0 -394.75 0 -9.18 -12.58z"/>
 </g>
 <g fill="#f4a740">
  <path d="M1002.35 1719.77 c0 -7.19 8.59 -17.77 18.57 -22.96 11.38 -5.99 40.73 -7.39 51.91 -2.60 11.98 4.99 25.36 18.37 25.36 25.16 l0 5.79 -47.92 0 -47.92 0 0 -5.39z"/>
  <path d="M1112.17 1719.17 c0 -7.59 9.38 -18.37 20.77 -23.76 12.98 -6.39 38.94 -5.99 52.71 1 12.18 5.99 22.36 16.97 22.36 23.76 l0 4.99 -47.92 0 -47.92 0 0 -5.99z"/>
  <path d="M1421.66 1719.17 c0 -9.18 14.18 -22.76 27.75 -26.76 22.76 -6.59 42.73 -2.40 58.30 12.58 6.99 6.79 9.78 10.98 9.78 14.78 l0 5.39 -47.92 0 -47.92 0 0 -5.99z"/>
  <path d="M1527.48 1718.77 c0 -8.59 8.19 -18.57 19.97 -24.56 8.39 -4.19 12.58 -4.99 27.95 -4.99 21.76 0 28.35 2.40 41.93 15.18 7.39 6.99 9.98 10.78 9.98 14.98 l0 5.79 -49.92 0 -49.92 0 0 -6.39z"/>
  <path d="M759.75 1522.29 c-56.51 -8.79 -123.60 -33.35 -170.12 -62.30 -36.94 -22.76 -73.88 -55.11 -103.63 -90.85 -12.98 -15.37 -14.78 -18.57 -14.78 -25.36 l0 -7.99 8.19 0 c6.99 0 9.78 1.40 18.37 9.18 37.14 33.35 98.64 70.88 150.15 91.25 32.55 12.98 80.67 25.36 119.60 30.75 l11.98 1.60 8.39 19.97 c5.19 12.38 8.59 23.16 8.59 28.55 l0.20 8.39 -9.38 -0.20 c-5.39 -0.20 -17.57 -1.40 -27.55 -3z"/>
  <path d="M1223.98 1483.56 c0 -3.59 3.79 -12.58 8.99 -21.56 34.74 -60.50 40.73 -128.99 16.77 -193.08 -5.39 -14.38 -4.59 -23.76 2.20 -24.56 2.80 -0.40 49.72 -11.98 104.23 -25.56 77.27 -19.17 102.23 -24.76 112.61 -24.76 l13.38 0 -1.20 10.78 c-1.60 15.18 -17.57 61.90 -30.15 88.05 -31.35 65.69 -83.26 123 -146.76 162.73 -27.16 16.77 -63.50 33.94 -72.28 33.94 -7.39 0 -7.79 -0.40 -7.79 -5.99z"/>
  <path d="M489.79 1166.68 c-6.19 -1.20 -5.99 -7.99 1.20 -36.54 10.38 -40.73 16.97 -54.31 30.35 -63.30 7.39 -4.79 10.78 -5.59 26.36 -6.39 9.98 -0.40 21.36 0.40 25.56 1.60 11.18 3.39 22.76 15.97 43.33 47.12 14.78 22.56 18.37 29.35 18.37 35.34 0 6.99 -0.40 7.59 -8.39 9.78 -16.77 4.39 -47.52 9.78 -68.69 11.78 -21.36 2 -59.30 2.40 -68.09 0.60z"/>
  <path d="M660.11 1134.73 c-3.19 -11.38 -9.18 -61.10 -9.18 -77.87 0 -22.96 4.59 -35.34 16.57 -45.92 10.38 -9.18 18.77 -11.18 41.93 -10.18 16.57 0.80 26.36 2.80 52.31 10.38 42.93 12.38 40.93 11.38 40.93 21.17 0 7.99 -1.20 9.38 -25.56 33.54 -45.33 45.13 -112.41 84.46 -117.01 68.89z"/>
  <path d="M797.09 948.04 c-45.33 -61.10 -45.13 -60.70 -43.93 -92.25 0.60 -18.77 1.20 -21.56 6.59 -30.15 7.59 -12.38 20.77 -21.36 40.33 -27.55 77.47 -24.96 92.65 -29.35 101.23 -29.35 8.79 0 9.18 0.20 9.18 5.79 0 8.19 -56.91 168.92 -70.28 198.47 -3.79 8.39 -4.99 9.38 -10.98 9.38 -6.39 0 -7.99 -1.80 -32.15 -34.34z"/>
  <path d="M885.14 695.25 c-45.53 -39.73 -51.12 -46.72 -53.71 -68.69 -2.80 -23.76 5.79 -44.33 22.96 -55.31 11.78 -7.59 98.24 -31.95 119.60 -33.54 l14.38 -1.20 0 6.99 c0 6.39 -17.17 59.70 -45.92 141.97 l-12.38 35.34 -7.79 0 c-6.99 0 -10.38 -2.40 -37.14 -25.56z"/>
  <path d="M955.43 477.21 c-51.71 -42.73 -55.71 -48.12 -55.91 -76.87 0 -15.57 0.80 -19.57 4.99 -27.95 6.19 -11.98 19.37 -21.56 33.94 -24.76 12.78 -2.80 83.46 -11.78 105.43 -13.58 l16.37 -1.20 0 7.19 c0 3.79 -3.59 17.17 -8.19 29.75 -4.39 12.38 -16.17 45.53 -26.16 73.48 -9.78 27.95 -18.97 53.31 -19.97 56.51 -1.60 4.59 -3.19 5.39 -9.18 5.39 -6.59 0 -11.58 -3.39 -41.33 -27.95z"/>
  <path d="M1056.06 313.08 c-1.40 -2.60 -12.58 -20.77 -24.76 -40.53 -32.15 -51.71 -33.54 -54.51 -34.54 -75.48 -1 -21.36 1.80 -32.35 10.98 -43.33 10.38 -11.98 20.57 -16.57 39.73 -17.57 18.17 -1 28.75 0.60 77.27 10.98 l33.35 7.19 0 7.19 c0 5.79 -2.20 9.78 -12.18 21.17 -25.36 29.55 -46.92 66.69 -65.89 113.41 -8.39 20.97 -8.79 21.36 -15.18 21.36 -4.59 0 -7.19 -1.20 -8.79 -4.39z"/>
  <path d="M1184.05 125.39 c0 -17.37 5.99 -77.47 9.18 -91.25 3.59 -15.57 8.79 -24.56 17.57 -29.95 5.59 -3.59 9.98 -4.19 26.16 -4.19 25.16 0 30.35 2.80 55.71 30.95 29.55 32.75 33.15 37.54 33.15 44.53 0 5.59 -0.80 6.39 -7.39 7.39 -36.14 6.19 -78.47 22.96 -109.22 43.73 -8.39 5.59 -15.97 9.18 -19.37 9.18 -5.59 0 -5.79 -0.20 -5.79 -10.38z"/>
 </g>
 <g fill="#26a7dd">
  <path d="M1414.47 1128.14 c-46.12 -6.59 -91.05 -32.75 -118.60 -69.49 -7.59 -10.18 -9.98 -15.18 -9.98 -20.37 0 -8.19 2.40 -10.18 22.56 -18.37 7.59 -3.19 15.77 -6.99 17.97 -8.59 2.40 -1.60 7.39 -3 10.98 -3 5.59 0 8.99 2.40 22.16 15.57 27.35 27.35 54.31 39.34 88.05 39.14 15.18 0 21.76 -1 33.54 -5.19 36.94 -13.18 65.29 -40.53 79.47 -76.07 3 -7.39 5.39 -10.18 11.78 -13.38 11.18 -5.19 38.74 -11.98 49.72 -11.98 l9.18 0 0 11.58 c0 35.34 -24.16 84.06 -56.11 113.41 -20.97 19.17 -50.32 35.14 -78.67 42.73 -18.17 4.79 -61.50 6.99 -82.06 3.99z"/>
  <path d="M1317.83 873.36 c-5.99 -1.40 -15.18 -3.19 -20.37 -3.79 l-9.58 -1.20 0 -8.39 c0 -15.97 28.75 -54.91 55.11 -75.08 16.77 -12.58 45.13 -26.96 62.70 -31.55 20.17 -5.39 71.48 -4.79 92.85 1 31.35 8.79 58.90 24.56 80.07 46.72 18.77 19.37 24.76 28.55 24.76 38.74 0 7.99 -0.40 8.59 -6.39 9.78 -3.59 0.80 -7.79 2.20 -9.58 3 -3.99 2 -24.56 6.19 -37.14 7.39 -10.38 1 -10.38 1 -21.56 -9.58 -38.14 -36.34 -88.05 -45.33 -130.58 -23.96 -6.39 3.19 -12.78 7.19 -14.18 8.99 -1.60 1.80 -3.59 3.19 -4.59 3.19 -4.19 0 -18.17 12.98 -26.76 25.16 -8.59 11.98 -9.58 12.78 -16.37 12.58 -4.19 -0.20 -12.38 -1.60 -18.37 -3z"/>
  <path d="M1140.92 836.22 c-12.78 -9.58 -35.34 -30.55 -45.53 -42.33 l-10.98 -12.38 -12.38 -51.71 c-10.38 -43.93 -12.58 -55.51 -13.18 -74.88 -0.80 -19.77 -0.40 -24.56 3.19 -34.14 5.19 -13.58 14.38 -24.76 28.55 -34.34 12.18 -8.19 12.18 -8.19 161.33 -46.32 159.94 -40.73 245.20 -62.90 267.36 -69.29 18.97 -5.39 22.56 -5.79 38.94 -4.59 13.78 1 20.57 0.60 28.15 -1.80 23.36 -7.39 45.33 -2.20 63.89 14.98 10.98 9.98 17.17 21.56 21.76 39.93 6.59 26.36 8.39 23.76 -34.34 47.52 -20.57 11.58 -66.29 37.34 -101.43 57.31 -35.34 19.97 -67.89 38.34 -72.48 40.73 -4.59 2.20 -9.18 6.19 -9.98 8.59 -1 2.60 -8.59 8.19 -19.37 14.18 -9.78 5.39 -33.94 18.97 -53.71 30.15 -40.13 22.56 -96.64 54.51 -159.74 89.85 -23.16 12.78 -45.33 25.56 -49.32 28.15 -9.78 6.19 -22.76 6.39 -30.75 0.40z m5.19 -77.87 c-0.20 -6.79 -0.60 -7.79 -2.20 -5.19 -1.60 3 -0.60 13.58 1.40 13.58 0.40 0 0.80 -3.79 0.80 -8.39z m89.25 -13.98 c-0.40 -2.60 -0.80 -1 -0.80 3.39 -0.20 4.39 0.20 6.39 0.80 4.59 0.40 -2 0.40 -5.59 0 -7.99z m39.34 -22.56 c-4.99 -3.79 -6.79 -3.79 -6.79 0 0 2 2 3 5.39 3 5.19 0 5.19 -0.20 1.40 -3z m-34.74 -18.97 l4.79 -1.20 -4.79 -3.39 c-7.19 -4.99 -7.99 -4.39 -7.79 6.19 0.20 6.99 0.60 8.19 1.60 4.39 0.80 -2.80 3.19 -5.39 6.19 -5.99z m60.30 -10.98 c0.80 -3.79 0.20 -4.99 -2.60 -4.99 -3.19 0 -3.39 0.60 -1.40 4.99 1.20 2.80 2.40 4.99 2.60 4.99 0.40 0 1 -2.20 1.40 -4.99z m107.42 -58.90 l0 -17.97 7.19 0 c3.99 0 6.79 -0.60 6.39 -1.40 -5.39 -11.58 -8.79 -16.57 -10.58 -16.57 -2.60 0 -4.99 18.57 -4.99 37.54 0 9.38 -0.40 10.38 -4.39 10.38 -4.19 0 -4.19 0 -0.40 3 2 1.60 4.39 3 5.39 3 0.80 0 1.40 -7.99 1.40 -17.97z m-37.34 2 c3.99 -0.20 3.99 -0.40 -1.60 -4.99 -6.19 -5.19 -10.98 -6.39 -10.98 -3 0 1 1.60 5.19 3.59 9.18 2.80 6.39 3.39 6.79 3.99 3.19 0.40 -3 2.20 -4.39 4.99 -4.39z m163.13 -57.31 c-0.20 -1 -1.40 -3.79 -3 -6.59 -2.80 -4.99 -2.80 -4.99 -3 -0.40 0 3.19 -1.20 4.39 -4.39 4.59 -4.39 0.20 -4.39 0.20 0.40 1.80 6.79 2.20 9.98 2.40 9.98 0.60z m-59.30 -14.78 c3.39 -0.20 2.80 -0.80 -2.20 -2.40 -7.99 -2.60 -9.18 -1.40 -5.99 5.79 2.40 5.39 2.60 5.39 3.19 1.20 0.40 -3 2.20 -4.39 4.99 -4.59z"/>
 </g>
 <g fill="#ee5e47">
  <path d="M891.13 1717.77 c-1.60 -4.19 -17.77 -41.33 -35.54 -82.46 -17.97 -41.13 -40.73 -94.64 -50.72 -118.80 -21.17 -50.92 -22.16 -52.91 -26.16 -55.11 -1.60 -0.80 -14.38 -3 -28.35 -4.79 -79.87 -10.38 -167.72 -48.52 -235.21 -102.43 -39.73 -31.75 -83.86 -80.47 -98.24 -109.22 -11.78 -23.16 -9.38 -52.71 4.99 -63.70 10.98 -8.39 21.76 -9.98 54.11 -7.39 49.92 3.79 80.07 2.40 122 -5.99 70.88 -14.18 142.57 -54.51 190.49 -107.02 36.14 -39.53 49.32 -63.30 78.67 -142.37 18.17 -49.12 29.15 -80.87 115.01 -330.46 66.09 -192.48 88.05 -253.98 107.22 -299.71 22.76 -54.91 42.73 -86.66 74.68 -118.60 41.73 -42.13 94.24 -69.29 151.55 -78.87 28.15 -4.79 88.05 -3.39 110.02 2.60 61.10 16.57 105.63 47.92 139.77 98.04 4.79 7.39 9.78 12.58 12.58 12.98 2.40 0.60 13.38 2.20 24.56 3.99 48.32 7.39 86.86 27.16 119.80 61.50 33.94 35.34 54.51 83.26 55.31 128.99 l0.40 18.97 -75.88 -0.40 -75.88 -0.40 -10.98 9.18 c-17.97 14.78 -25.96 17.77 -47.92 17.97 -15.77 0 -20.37 -0.80 -27.16 -4.39 -10.18 -5.39 -19.97 -16.37 -25.76 -28.95 -5.19 -11.18 -10.38 -17.57 -14.18 -17.57 -1.40 0 -6.19 4.79 -10.78 10.78 -17.17 23.36 -29.15 28.15 -67.09 26.56 -24.56 -1 -26.76 -0.80 -29.95 2.80 -4.59 5.19 -2.20 9.38 8.39 14.78 6.39 3.19 11.78 3.99 28.75 3.99 23.96 -0.20 37.34 -4.19 52.91 -16.17 13.58 -10.18 19.57 -9.38 31.55 4.19 7.99 8.99 9.58 12.18 8.99 17.37 l-0.60 6.39 -111.82 28.55 c-293.32 74.88 -298.91 76.47 -313.08 83.86 -23.96 12.58 -42.33 37.34 -47.12 63.50 -2.60 14.18 -3 11.98 12.98 81.87 9.98 42.53 14.18 57.90 18.17 63.89 8.39 12.58 46.12 49.12 61.50 59.10 25.76 17.17 49.72 26.96 76.87 31.95 7.19 1.20 32.35 2.60 55.91 2.80 48.12 0.60 57.70 2.40 72.28 13.58 13.78 10.58 19.77 22.16 20.97 40.73 1.60 22.16 -2.40 34.94 -15.18 48.92 -35.74 38.94 -124.79 57.90 -206.66 44.33 -51.91 -8.79 -104.63 -35.14 -146.76 -73.28 -15.57 -14.18 -22.16 -18.17 -22.16 -13.58 0 3 33.15 31.35 51.71 44.33 9.38 6.59 26.56 16.77 38.34 22.76 20.97 10.78 59.30 24.96 67.29 24.96 3.39 0 4.59 3 8.99 21.56 2.80 11.78 10.58 44.73 17.37 73.28 6.79 28.55 13.98 56.51 15.77 61.90 7.79 22.36 22.16 38.14 43.33 48.12 13.98 6.59 14.38 6.99 19.37 19.17 11.58 29.35 14.38 47.12 14.38 92.45 0 37.74 -0.40 43.73 -4.59 58.90 -10.18 36.94 -26.76 67.49 -51.32 93.45 -22.76 24.16 -48.52 42.13 -73.88 51.32 -5.39 2 -10.98 4.39 -12.18 5.39 -1.60 1.20 2 10.38 12.18 31.15 28.35 57.70 36.94 77.67 36.94 86.06 0 7.59 -0.40 8.19 -5.79 8.19 -9.58 0 -22.56 5.59 -34.74 14.98 -14.78 11.58 -20.37 11.78 -33.54 0.80 -11.78 -9.98 -26.56 -15.77 -39.34 -15.77 -18.17 0 -40.93 14.98 -50.52 32.95 l-4.79 8.99 -49.52 0 -49.52 0 -3.19 -7.39z m799.08 -1404.49 c1.40 -4.59 -3.79 -14.98 -8.79 -17.77 -6.19 -3.19 -9.78 -2.40 -13.38 3 -2.80 4.39 -3 5.99 -0.60 11.18 1.40 3.39 5.19 7.99 8.59 9.98 5.59 3.39 6.39 3.39 9.58 0.40 2 -1.60 3.99 -4.79 4.59 -6.79z m-347.23 -17.97 c2 -2.20 5.99 -8.79 8.79 -14.38 3 -6.19 7.79 -12.18 11.98 -14.98 6.19 -4.19 8.99 -4.59 22.36 -3.99 13.78 0.60 15.97 1.20 21.56 6.59 3.39 3.39 8.19 10.38 10.38 15.57 2.60 5.99 6.19 10.58 9.58 12.38 5.19 2.60 5.99 2.60 10.98 -1.40 4.79 -3.59 5.39 -5.19 4.39 -12.18 -1.40 -10.58 -14.18 -28.75 -25.16 -35.54 -26.16 -16.57 -51.12 -14.58 -74.88 6.39 -10.18 8.99 -20.17 27.35 -18.17 33.54 1.20 3.99 9.98 12.18 12.98 12.18 0.80 0 3 -1.80 5.19 -4.19z"/>
  <path d="M1735.94 891.73 c-33.54 -10.98 -55.51 -51.71 -58.10 -108.22 -1.60 -31.75 2.20 -49.72 13.98 -67.09 12.18 -17.97 23.36 -23.56 48.12 -23.56 14.98 0 19.97 0.80 28.55 4.79 21.17 9.98 38.34 35.14 46.72 68.89 3.59 14.38 3.99 20.97 3.39 45.92 -0.80 24.16 -1.60 31.15 -5.39 40.73 -5.99 15.18 -15.18 26.96 -26.76 34.14 -8.19 4.99 -11.98 5.99 -25.96 6.59 -9.98 0.40 -19.57 -0.40 -24.56 -2.20z"/>
  <path d="M1690.22 566.67 c-0.60 -1.40 -3.59 -14.18 -6.99 -28.55 -3.39 -14.18 -8.19 -30.35 -10.78 -35.94 -6.79 -14.78 -22.96 -31.35 -38.14 -39.14 -11.78 -6.19 -12.98 -7.39 -12.98 -12.98 0 -12.58 -0.80 -12.38 80.47 -11.18 l73.28 1 0 9.18 c0 19.97 -12.58 52.51 -30.55 79.07 -4.59 6.59 -14.98 18.57 -23.16 26.56 -13.18 12.78 -15.57 14.38 -22.56 14.38 -4.39 0 -8.19 -1 -8.59 -2.40z"/>
 </g>
 <g fill="#df614e">
  <path d="M1287.28 1718.77 c-1.60 -3.59 -21.76 -48.52 -45.13 -99.84 -37.14 -81.87 -42.33 -94.44 -41.73 -101.83 l0.60 -8.59 19.97 -7.19 c52.31 -19.17 101.03 -48.72 144.16 -87.26 35.54 -31.55 69.88 -77.87 91.65 -123.20 14.58 -30.55 20.97 -47.92 28.75 -77.87 l5.59 -21.96 7.39 -0.60 c6.39 -0.60 8.79 0.40 15.37 6.99 23.56 22.76 48.12 64.89 57.11 98.24 4.79 17.77 5.19 22.36 5.19 61.10 0.20 39.73 -0.20 42.93 -5.39 61.70 -10.38 37.34 -30.15 70.48 -57.11 95.44 l-13.58 12.58 33.54 69.88 c24.56 50.52 33.74 71.68 33.74 76.87 0 6.79 -0.60 7.39 -10.78 11.78 -5.99 2.40 -14.98 7.99 -19.77 12.38 -11.58 9.98 -20.17 10.58 -29.75 1.60 -13.18 -12.18 -31.95 -18.57 -45.53 -15.57 -19.17 4.39 -37.54 18.37 -45.33 34.74 l-3.39 6.99 -61.50 0 -61.50 0 -2.60 -6.39z"/>
 </g>
 <g fill="#252525">
  <path d="M1225.98 1234.17 c-20.37 -6.19 -35.14 -21.17 -41.53 -41.53 -7.79 -25.16 -32.75 -133.38 -32.95 -143.36 l-0.40 -9.98 10.98 0.40 c51.52 1.80 69.29 1.20 89.85 -3.39 11.58 -2.60 24.56 -4.79 28.75 -4.79 6.99 -0.20 8.19 0.60 11.78 6.79 20.77 37.34 65.49 69.49 116.21 83.06 19.77 5.39 58.10 4.99 79.47 -0.80 44.13 -11.98 90.45 -46.52 113.61 -84.66 13.58 -22.36 28.55 -69.29 23.76 -74.08 -2 -2 -41.53 6.79 -49.92 11.18 -3 1.60 -6.39 6.79 -9.38 14.78 -13.98 37.54 -47.72 67.49 -87.66 77.47 -15.18 3.79 -48.12 3.79 -64.49 0 -32.95 -7.79 -72.28 -38.14 -72.28 -55.91 0 -5.19 2.20 -8.79 10.78 -17.57 5.99 -6.19 13.98 -16.77 17.57 -23.76 5.59 -10.78 6.59 -14.58 6.59 -27.55 0 -12.38 -1 -16.97 -5.59 -26.16 -5.59 -11.58 -21.56 -28.15 -32.95 -34.14 -6.39 -3.39 -9.58 -12.78 -3.59 -10.38 1.60 0.60 6.19 -3.79 11.78 -11.78 8.79 -12.38 22.56 -25.36 26.96 -25.36 1 0 3 -1.40 4.59 -3.19 4.19 -5.19 24.76 -14.58 39.14 -17.97 18.77 -4.39 52.91 -2.80 69.88 3.19 16.57 5.79 33.94 16.57 47.72 29.55 l11.18 10.78 12.58 -3.19 c6.99 -1.80 14.98 -3.19 17.77 -3.19 2.80 0 5.39 -0.80 5.99 -1.80 0.60 -1 4.39 -2.40 8.19 -3 3.79 -0.80 6.99 -2.40 6.99 -3.79 0 -4.19 -13.58 -22.96 -25.56 -34.94 -13.78 -14.18 -24.56 -21.56 -47.72 -33.15 -63.70 -32.15 -125.79 -23.56 -182.90 25.36 -15.37 13.18 -34.74 37.74 -44.33 56.31 l-7.99 15.18 -40.93 -0.80 c-45.92 -1 -55.31 -2.60 -79.87 -14.98 -12.58 -6.19 -14.98 -8.19 -15.57 -12.78 -0.40 -3.99 0.20 -5.59 2.60 -5.59 1.60 0 6.39 -2.20 10.58 -4.79 3.99 -2.60 26.16 -15.37 49.32 -28.15 63.10 -35.34 119.60 -67.29 159.74 -89.85 19.77 -11.18 43.93 -24.76 53.71 -30.15 10.78 -5.99 18.37 -11.58 19.37 -14.18 0.80 -2.40 5.39 -6.39 9.98 -8.59 4.59 -2.40 37.14 -20.77 72.48 -40.73 35.14 -19.97 80.87 -45.72 101.43 -57.31 20.57 -11.38 37.54 -21.96 37.54 -23.36 0 -1.60 1.60 -2.40 3.39 -2 2.40 0.40 4.59 5.59 7.79 18.57 19.57 79.67 28.75 121.60 28.75 129.99 0 8.79 -0.60 10.18 -6.19 13.78 -6.79 4.59 -17.17 17.77 -23.56 30.35 -21.76 43.13 -6.99 116.41 30.55 151.95 15.18 14.38 29.75 20.77 49.52 21.96 8.59 0.60 15.57 1 15.57 1.20 0 0 5.99 24.96 13.18 55.11 20.57 86.06 19.97 105.43 -4.59 131.78 -6.39 6.99 -15.18 13.98 -21.17 16.77 -10.38 4.99 -75.68 22.36 -286.93 76.07 -213.05 54.31 -207.26 52.91 -227.03 52.71 -9.58 0 -19.77 -0.80 -22.56 -1.60z"/>
  <path d="M1154.30 789.30 c-8.99 -4.39 -16.57 -16.57 -17.77 -28.15 -1.60 -18.37 12.18 -34.94 34.94 -41.53 14.78 -4.19 21.36 -3.19 22.16 3.59 0.60 4.79 -0.20 5.39 -7.99 6.59 -21.36 3.59 -33.54 13.38 -33.54 26.76 0 7.19 3.79 14.78 9.98 19.57 5.39 4.39 19.57 3 30.15 -2.60 10.58 -5.79 12.78 -9.18 9.78 -14.98 -2.60 -4.59 -3.39 -4.59 -12.58 -0.80 -9.78 3.99 -11.38 3.79 -11.38 -1.80 0 -3.79 2.20 -5.99 9.98 -9.98 5.39 -2.80 12.58 -5.19 15.57 -5.19 5.19 0 6.39 1.40 11.38 12.18 l5.39 12.18 -7.59 7.99 c-16.17 16.77 -42.33 23.96 -58.50 16.17z"/>
  <path d="M1229.18 760.35 c-0.60 -2.60 -1.60 -19.37 -2.20 -37.74 l-1.40 -32.95 4.99 -2.20 c4.39 -2 7.19 -0.80 28.55 13.78 28.95 19.57 36.74 25.36 36.74 27.35 0 0.80 -3 3 -6.79 4.59 -5.79 2.80 -7.39 3 -10.38 0.60 -3.19 -2.20 -5.79 -1.40 -20.17 5.59 -15.37 7.79 -16.57 8.79 -16.57 14.58 0 4.59 -1.20 6.79 -4.99 8.39 -6.79 3.19 -6.79 3.19 -7.79 -2z m23.96 -30.75 c4.79 -2.80 8.79 -5.99 8.79 -6.79 0 -2.80 -17.77 -14.38 -19.97 -12.98 -2.80 1.60 -2.60 24.96 0.20 24.96 1.20 0 5.99 -2.40 10.98 -5.19z"/>
  <path d="M1293.07 702.44 c-14.18 -26.76 -20.17 -39.34 -18.97 -40.13 0.40 -0.40 9.18 -4.99 19.57 -10.18 23.36 -11.78 35.94 -13.78 43.13 -7.19 7.19 6.59 8.19 14.58 3 23.16 -2.20 3.99 -3.99 7.59 -3.59 7.79 0.40 0.20 6.19 3.39 13.18 6.79 6.79 3.39 12.38 6.99 12.38 7.79 0 0.80 -2.60 3 -5.79 4.99 -5.59 3.19 -5.99 3.19 -20.37 -3.39 -15.37 -7.19 -17.77 -6.99 -25.96 0.20 -3 2.60 -2.80 3.59 2.60 13.58 l5.79 10.78 -5.99 3 c-3.39 1.80 -6.39 3.19 -6.99 3.19 -0.60 0 -5.99 -9.18 -11.98 -20.37z m24.76 -29.15 c7.39 -4.59 8.99 -6.59 8.99 -11.38 0 -4.99 -0.80 -6.19 -5.59 -6.59 -4.19 -0.60 -25.16 7.19 -29.15 10.78 -0.40 0.40 0.80 3.99 3 7.79 4.39 8.39 7.99 8.19 22.76 -0.60z"/>
  <path d="M1361.76 653.72 l-14.98 -29.15 4.79 -3.79 c7.19 -5.79 11.58 -4.79 29.35 7.19 9.18 5.99 16.97 10.98 17.57 10.98 0.80 0 1.20 -4.79 1.20 -10.38 0 -5.79 0.60 -16.57 1.20 -23.96 1.20 -12.18 1.80 -13.58 6.99 -15.57 3 -1.40 6.39 -1.80 7.39 -1.20 2.40 1.40 32.35 54.31 32.35 56.71 0 1.80 -8.59 6.39 -11.78 6.39 -1 0 -5.19 -6.79 -9.58 -14.98 -4.19 -8.19 -8.79 -14.98 -9.98 -14.98 -2 0 -2.60 4.79 -2.60 17.57 0 26.16 -1.20 26.96 -21.36 13.38 -14.98 -9.98 -20.57 -12.78 -20.57 -9.98 0 0.60 3.79 8.59 8.59 18.17 8.19 16.57 8.19 17.17 4.59 19.97 -2.20 1.60 -4.99 2.80 -5.99 2.80 -1.20 0 -8.99 -13.18 -17.17 -29.15z"/>
  <path d="M1447.02 604 c-7.39 -14.78 -13.38 -27.75 -13.38 -28.55 0 -2.40 9.78 -6.79 11.98 -5.39 2.20 1.40 27.95 49.92 27.95 52.71 0 1.60 -9.78 8.19 -12.38 8.19 -0.40 0 -6.79 -12.18 -14.18 -26.96z"/>
  <path d="M1467.58 586.03 c-14.38 -28.15 -14.78 -29.15 -11.18 -31.95 5.79 -4.39 9.98 -3.79 38.74 5.79 14.58 4.99 26.36 8.39 26.36 7.99 0 -0.60 -4.59 -9.58 -10.38 -20.17 -9.78 -18.17 -9.98 -19.37 -6.59 -21.76 7.59 -5.59 9.78 -3.19 25.56 26.76 13.98 26.76 15.18 29.55 11.98 31.95 -5.39 3.79 -10.58 3 -38.74 -6.59 -14.58 -4.99 -26.76 -8.59 -27.16 -8.19 -0.40 0.40 3.79 9.58 9.38 20.37 l9.98 19.57 -4.39 2.60 c-2.60 1.40 -5.39 2.40 -6.59 2.60 -1 0 -8.79 -12.98 -16.97 -28.95z"/>
 </g>
 <g fill="#1f1c1b">
  <path d="M1411.67 1129.34 c-30.55 -6.59 -63.50 -22.16 -84.46 -40.13 -13.18 -11.18 -29.95 -30.15 -41.13 -46.32 -2.60 -3.99 -5.39 -5.99 -7.19 -5.19 -2 0.60 -3 -0.20 -3 -3 0 -4.59 4.99 -6.39 17.97 -6.39 l8.99 0.20 -5.59 4.79 -5.59 4.99 6.39 9.38 c22.16 32.35 62.10 59.70 103.83 70.68 24.16 6.39 63.70 6.59 87.46 0.20 65.09 -17.57 116.21 -67.69 131.98 -129.19 4.99 -19.17 5.19 -26.96 0.80 -26.96 -5.99 0 -35.74 8.19 -43.73 11.98 -6.39 3.19 -8.79 5.99 -11.78 13.38 -14.18 35.54 -42.33 62.70 -79.47 76.07 -12.78 4.59 -17.57 5.19 -39.53 5.39 -20.37 0 -27.55 -0.80 -38.94 -4.39 -20.37 -6.59 -37.74 -17.57 -55.31 -35.14 -8.59 -8.59 -16.37 -14.98 -17.57 -14.38 -1 0.60 -2 -0.40 -2 -2.60 0 -5.79 8.39 -12.38 15.57 -12.38 l6.39 0 -3.99 3.99 c-2.40 2.40 -3.59 5.19 -2.80 6.59 7.99 13.58 26.96 29.55 48.12 40.13 21.56 10.78 52.11 14.18 75.48 8.19 19.57 -4.99 43.33 -17.97 57.51 -31.75 17.77 -16.97 24.36 -27.75 34.34 -56.71 1.20 -3.39 5.79 -4.99 36.34 -12.58 29.35 -7.39 32.55 -6.79 32.55 5.39 0 18.57 -12.58 57.11 -25.56 78.47 -8.19 13.58 -33.35 39.93 -50.72 53.51 -15.37 11.78 -43.93 25.76 -62.90 30.75 -20.17 5.39 -63.70 6.99 -82.46 3z"/>
  <path d="M1281.49 869.17 c-3.99 -1 -4.99 -6.59 -1 -6.59 1.20 0 6.39 -7.19 11.18 -15.97 9.18 -16.77 26.76 -39.14 42.13 -53.51 21.56 -20.37 54.51 -38.14 80.87 -43.53 21.76 -4.39 61.70 -3 82.86 3.19 16.17 4.59 44.53 18.17 59.50 28.35 19.37 13.18 45.53 44.13 46.72 55.31 1 8.19 -3.59 6.79 -9.38 -3 -7.39 -12.58 -31.55 -37.54 -45.53 -47.12 -15.97 -10.98 -37.34 -20.77 -56.31 -25.96 -20.97 -5.59 -61.30 -6.19 -80.87 -1 -17.57 4.59 -45.92 18.97 -62.70 31.55 -15.97 12.18 -36.34 35.34 -47.32 53.91 -8.79 14.78 -9.38 17.77 -3.79 17.77 2.60 0 3.99 1.40 3.99 3.99 0 3.39 -1.20 3.99 -8.39 3.79 -4.79 -0.20 -10.18 -0.60 -11.98 -1.20z"/>
 </g>
 <g fill="#030303">
  <path d="M868.17 1695.81 c-7.39 -16.37 -20.57 -46.52 -29.55 -67.49 -8.99 -20.77 -20.77 -47.92 -26.16 -60.10 -5.39 -12.38 -9.78 -23.36 -9.78 -24.36 0 -1.20 -3.79 -2.60 -8.39 -3.19 -4.79 -0.60 -16.57 -2.20 -26.56 -3.39 -40.13 -4.99 -97.64 -22.36 -136.18 -40.73 -93.05 -44.53 -164.33 -113.41 -206.26 -199.67 -28.95 -59.70 -33.94 -75.48 -29.75 -94.64 3.99 -18.97 19.77 -36.54 37.94 -41.93 3.99 -1.20 13.98 -2.20 22.36 -2.20 l14.98 0 3.39 -14.38 c6.39 -25.96 14.98 -53.71 19.97 -63.70 6.39 -12.38 16.37 -22.36 29.55 -29.15 8.99 -4.79 12.78 -5.59 27.35 -5.59 13.78 0 18.77 0.80 26.56 4.79 15.77 7.59 29.35 21.96 47.32 49.92 15.77 24.16 21.76 31.35 19.17 22.76 -3.19 -10.98 -7.39 -53.91 -6.79 -69.49 1.40 -30.15 12.98 -49.52 37.14 -61.30 12.18 -5.99 14.78 -6.59 30.35 -6.19 14.38 0.20 23.56 2.20 58.90 12.38 23.16 6.59 43.33 12.18 45.13 12.18 1.80 0 4.79 -3 6.79 -6.59 l3.59 -6.79 -9.98 -12.78 c-26.56 -33.94 -60.10 -82.06 -65.29 -93.65 -7.59 -16.97 -8.19 -40.73 -1.40 -58.30 5.79 -14.78 20.57 -31.15 35.54 -38.94 6.39 -3.39 33.54 -12.98 60.50 -21.36 26.96 -8.39 54.31 -16.77 60.70 -18.77 11.58 -3.79 18.77 -10.78 15.57 -15.57 -0.80 -1.20 -13.98 -12.78 -29.35 -25.76 -40.33 -34.54 -55.31 -49.92 -62.10 -63.89 -5.19 -10.58 -5.79 -14.18 -5.79 -29.95 0.20 -14.78 1 -19.77 4.79 -27.55 6.39 -13.18 19.77 -27.35 31.75 -33.94 5.39 -2.80 30.75 -11.18 56.51 -18.17 67.69 -18.77 71.88 -20.17 71.48 -22.16 -0.40 -1.20 -13.18 -12.18 -28.55 -24.76 -56.91 -46.32 -68.09 -61.30 -68.09 -91.05 0 -12.98 1 -17.97 5.19 -27.16 7.39 -15.57 17.97 -26.76 32.55 -33.54 14.18 -6.99 21.56 -8.39 77.87 -15.18 22.96 -2.60 42.13 -5.39 42.53 -5.79 0.60 -0.60 -8.79 -16.57 -20.57 -35.54 -40.73 -65.29 -46.52 -80.47 -40.13 -106.62 5.59 -22.36 17.77 -37.74 39.34 -48.92 7.99 -4.39 11.38 -4.79 32.95 -4.59 20.77 0 29.35 1.20 62.90 8.79 21.36 4.79 41.13 8.79 43.93 8.79 l4.79 0.20 3.59 -36.94 c4.39 -48.32 8.59 -72.28 14.78 -85.66 8.79 -19.17 5.59 -18.17 53.71 -18.17 l42.53 0 12.58 13.58 c6.99 7.39 21.56 23.36 32.15 35.54 l19.37 22.16 27.55 1.20 c81.87 3.59 151.35 40.13 195.88 103.23 5.19 7.19 9.98 13.58 10.98 14.18 1 0.80 7.39 1.80 14.18 2.60 45.92 4.79 93.65 26.96 128.19 59.70 23.16 21.96 35.74 38.74 48.52 65.29 12.58 25.76 19.37 51.12 22.56 83.06 2.20 22.76 2 25.96 -2 46.72 -10.58 53.91 -35.94 98.04 -72.88 126.99 -8.39 6.39 -15.18 13.18 -15.18 14.78 -0.20 1.60 4.39 21.96 9.98 45.33 l10.18 42.13 17.37 0.80 c20.97 0.80 37.94 7.99 52.31 21.96 35.74 34.74 51.12 100.04 35.14 149.75 -6.19 19.37 -14.78 32.75 -28.55 45.13 l-10.58 9.38 12.98 54.91 c15.77 66.09 17.77 85.46 10.78 105.63 -8.19 24.56 -23.76 42.93 -46.12 54.11 -13.98 7.19 -24.16 9.98 -145.56 40.93 -54.31 13.78 -99.04 25.56 -99.64 25.96 -0.40 0.60 3.59 6.19 8.99 12.38 31.15 36.34 49.12 71.48 57.51 112.61 15.18 74.08 -7.59 153.55 -58.50 205.26 l-14.38 14.58 33.15 68.09 c18.37 37.54 34.34 70.08 35.94 72.48 1.40 2.20 6.59 5.19 11.18 6.59 11.58 3.39 28.35 14.78 35.54 23.76 6.59 8.39 14.18 20.57 14.18 22.96 0 0.80 -4.59 1.40 -10.18 1.40 -9.58 0 -10.58 -0.40 -19.97 -10.78 -12.78 -14.18 -23.36 -19.17 -39.34 -19.17 -9.38 0 -14.98 1.20 -22.36 4.99 -9.98 4.99 -19.97 15.77 -19.97 21.56 0 2.80 -2 3.39 -10.78 3.39 -9.18 0 -11.18 -0.60 -12.18 -3.99 -0.60 -2 -5.39 -7.59 -10.38 -11.98 -22.36 -19.77 -52.31 -16.77 -68.89 6.99 -5.99 8.59 -6.79 8.99 -16.17 8.99 -9.18 0 -9.58 -0.20 -8.19 -4.39 9.18 -29.95 44.93 -50.52 75.28 -43.53 12.98 3.19 22.56 7.99 30.95 15.77 3.59 3.39 7.19 6.19 7.79 6.19 0.60 0 4.99 -3.59 9.98 -7.79 4.79 -4.39 13.78 -9.98 19.77 -12.38 5.99 -2.60 10.78 -4.99 10.78 -5.79 0 -0.60 -15.18 -32.75 -33.94 -71.48 -18.57 -38.74 -33.94 -72.68 -33.94 -75.68 0 -3.79 3.59 -8.39 13.98 -17.97 27.16 -25.16 46.92 -58.10 57.31 -95.64 4.99 -18.17 5.39 -22.56 5.39 -55.71 0 -32.15 -0.60 -37.94 -5.19 -55.11 -6.39 -23.56 -21.56 -54.31 -37.14 -74.88 -14.78 -19.37 -27.75 -32.15 -29.95 -29.75 -1 1.20 -3 7.39 -4.39 13.98 -15.37 73.08 -65.09 157.74 -122.40 209.06 -43.33 38.94 -101.23 73.28 -149.75 89.45 -7.59 2.40 -14.18 5.59 -14.78 7.19 -0.60 1.40 17.97 44.53 41.33 95.84 42.33 93.25 49.92 110.22 49.92 111.82 0 0.40 -4.79 0.80 -10.38 0.80 l-10.58 -0.20 -5.79 -12.38 c-4.39 -9.38 -61.30 -135.18 -80.07 -176.71 l-3 -6.59 -13.38 10.38 c-7.59 5.59 -20.97 13.78 -29.95 17.97 l-16.37 7.99 17.17 35.34 c9.38 19.37 21.56 45.33 27.16 57.70 8.59 18.77 11.38 22.76 16.77 25.36 12.38 5.99 36.54 31.95 36.54 39.53 0 0.80 -4.79 1.60 -10.58 1.60 -9.98 0 -10.98 -0.40 -17.97 -8.79 -21.56 -25.96 -59.70 -25.36 -77.07 1.40 -4.59 6.79 -5.59 7.39 -14.78 7.39 -9.18 0 -10.38 -0.60 -18.57 -9.78 -12.18 -13.58 -24.16 -18.97 -39.73 -17.77 -15.77 1.40 -27.55 7.59 -35.34 18.57 -5.99 8.59 -6.79 8.99 -15.97 8.99 -11.38 0 -11.78 -1.20 -3.79 -15.18 20.97 -36.34 67.89 -44.53 101.03 -17.57 l10.78 8.99 11.58 -8.99 c12.18 -9.58 25.16 -15.18 34.74 -15.18 3.19 0 5.79 -1 5.79 -2.20 0 -2.60 -17.97 -41.33 -37.14 -80.67 -14.58 -29.35 -17.17 -38.54 -12.18 -42.33 1.20 -1 6.99 -3.59 12.38 -5.59 47.12 -17.17 93.65 -63.30 114.61 -113.61 12.58 -30.15 15.18 -44.53 15.18 -84.06 -0.20 -38.94 -3.39 -58.50 -14.38 -86.46 -4.99 -12.18 -5.39 -12.58 -19.37 -19.17 -21.17 -9.98 -35.54 -25.76 -43.33 -48.12 -1.80 -5.39 -8.99 -33.35 -15.77 -61.90 -6.79 -28.55 -14.58 -61.50 -17.37 -73.28 -4.39 -18.57 -5.59 -21.56 -8.99 -21.56 -7.59 0 -44.93 -13.58 -65.09 -23.76 -30.75 -15.37 -58.70 -35.34 -84.66 -60.30 -9.98 -9.58 -11.78 -15.18 -6.39 -20.57 6.59 -6.59 12.98 -3.99 31.75 13.18 74.48 67.49 168.52 92.85 261.57 70.48 65.29 -15.57 100.63 -46.52 95.84 -83.86 -1.60 -13.18 -9.78 -26.56 -21.17 -34.94 -14.58 -10.38 -25.56 -12.38 -73.48 -12.98 -23.76 -0.40 -48.52 -1.60 -55.11 -2.80 -27.16 -5.39 -50.72 -15.18 -75.88 -31.95 -15.37 -9.98 -53.11 -46.52 -61.50 -59.10 -3.99 -5.99 -8.39 -21.56 -18.17 -64.09 -7.19 -30.75 -13.58 -60.90 -14.38 -67.09 -4.19 -35.34 16.17 -73.08 48.52 -90.05 14.18 -7.39 31.15 -11.98 311.09 -83.26 61.50 -15.77 112.41 -29.15 113.21 -29.75 0.60 -0.60 -3 -5.99 -8.39 -11.78 l-9.58 -10.58 -9.18 6.79 c-14.38 11.18 -29.15 15.97 -52.31 16.97 -23.56 1 -40.73 -2 -48.12 -8.39 -12.38 -10.58 -2.80 -30.95 13.18 -28.35 22.36 3.59 41.73 3.59 52.11 0.20 10.58 -3.59 22.96 -13.98 34.14 -28.95 4.19 -5.59 6.39 -6.79 12.38 -6.79 8.99 0 13.98 4.39 19.97 17.57 10.58 22.96 26.16 34.14 47.32 33.94 15.37 -0.20 25.96 -4.59 41.93 -17.77 l10.98 -8.99 75.88 0 75.88 0.20 -0.60 -13.58 c-1 -27.35 -14.78 -67.29 -31.75 -93.25 -32.15 -48.92 -83.06 -81.07 -143.16 -90.25 -11.18 -1.80 -22.16 -3.39 -24.56 -3.99 -2.80 -0.40 -7.79 -5.59 -12.58 -12.98 -34.14 -50.12 -79.07 -81.67 -139.77 -97.84 -22.16 -5.99 -70.88 -7.39 -98.04 -2.80 -57.31 9.58 -109.82 36.74 -151.55 78.87 -31.95 31.95 -51.91 63.70 -74.68 118.60 -19.17 45.72 -41.13 107.22 -107.22 299.71 -85.86 249.59 -96.84 281.34 -115.01 330.46 -10.38 27.95 -23.76 60.90 -29.75 72.88 -35.54 72.68 -112.81 136.97 -198.47 165.53 -50.72 16.77 -107.42 22.56 -171.72 17.17 -33.94 -2.80 -47.92 2.60 -54.91 20.97 -6.59 16.97 -0.20 35.54 22.76 66.49 15.37 20.77 55.31 61.10 80.07 80.67 67.49 53.91 155.34 92.05 235.21 102.43 13.98 1.80 26.76 3.99 28.35 4.79 3.99 2.20 4.79 3.79 28.75 61.10 11.38 27.55 35.74 84.46 54.11 126.79 18.37 42.33 33.74 78.07 34.34 79.47 0.80 1.80 -2 2.40 -9.78 2.40 l-10.98 0 -12.98 -29.35z m-77.67 -178.71 c0 -1.40 -3.99 -11.58 -8.59 -22.56 l-8.39 -19.97 -11.98 -1.60 c-38.94 -5.39 -87.06 -17.77 -119.60 -30.75 -51.52 -20.37 -113.01 -57.90 -150.15 -91.25 -9.78 -8.99 -14.58 -11.18 -14.58 -7.19 0 3.39 29.15 36.54 49.12 56.11 33.54 32.35 66.49 55.31 109.62 75.88 39.34 18.77 88.45 34.14 129.79 40.53 23.36 3.59 24.96 3.59 24.76 0.80z m470.23 -46.92 c100.23 -50.12 169.92 -129.39 203.66 -232.22 12.78 -39.34 12.78 -37.94 4.19 -37.94 -3.79 0 -51.91 11.18 -106.82 24.96 -54.91 13.78 -101.43 24.96 -103.63 24.96 -2.20 0 -4.39 0.60 -4.79 1.60 -0.60 0.80 1.60 8.99 4.59 18.37 9.58 28.55 12.38 46.32 12.38 76.87 0.20 15.37 -1 33.74 -2.20 40.93 -5.39 28.95 -18.77 64.29 -33.15 87.66 l-5.39 8.59 4.59 -1.40 c2.60 -0.80 14.58 -6.39 26.56 -12.38z m46.72 -251.98 c73.68 -18.57 268.56 -68.09 357.81 -91.25 44.53 -11.58 85.46 -23.16 91.25 -25.96 13.98 -6.79 30.95 -25.36 36.54 -40.13 6.39 -16.57 4.59 -31.15 -10.98 -96.44 -7.19 -30.15 -12.98 -55.11 -12.98 -55.11 0 -0.20 -6.99 -0.60 -15.57 -1.20 -42.93 -2.40 -76.07 -39.34 -87.46 -97.04 -3.59 -18.97 -3.59 -51.91 0.20 -67.89 4.79 -20.57 18.37 -43.33 30.75 -51.32 3.59 -2.20 6.19 -5.79 6.19 -7.99 0 -2.20 -5.39 -26.36 -11.98 -53.91 -32.15 -133.78 -30.75 -129.59 -46.92 -144.56 -10.38 -9.58 -27.16 -18.17 -35.54 -18.17 -3.19 0 -10.78 1.40 -16.97 3.19 -8.19 2.40 -16.17 3 -29.95 2.40 -13.18 -0.80 -21.56 -0.20 -28.15 1.80 -12.38 3.79 -137.37 36.34 -267.76 69.49 -158.14 40.33 -157.14 39.93 -169.32 48.32 -14.18 9.58 -23.36 20.77 -28.55 34.34 -6.39 17.37 -4.59 35.54 9.98 97.04 l12.38 51.71 11.38 12.98 c13.18 14.98 43.13 41.73 50.32 44.93 2.80 1.20 5.99 3.59 7.39 5.39 3.19 4.19 26.76 14.78 41.53 18.77 13.58 3.59 27.35 4.59 77.87 5.79 50.32 1.40 66.29 6.39 85.86 27.35 14.58 15.57 17.97 24.76 17.97 49.72 0 19.97 -0.40 21.56 -6.79 33.94 -9.58 18.37 -28.55 35.94 -49.52 45.92 -8.99 4.39 -16.97 7.99 -17.77 7.99 -0.60 0 -3.99 1.20 -7.39 2.80 -9.98 4.59 -48.32 12.78 -70.28 15.37 -17.37 2 -28.55 1.80 -68.89 -0.80 -4.19 -0.40 -4.79 0.40 -4.39 4.59 1.20 9.18 28.55 122.60 32.75 136.38 6.39 20.37 21.17 35.34 41.53 41.53 12.58 3.79 28.75 1.60 75.48 -9.98z m-725.40 -62.10 c23.96 -4.19 44.53 -8.79 46.32 -10.78 1.20 -1.20 -23.16 -39.53 -35.74 -56.31 -4.19 -5.79 -11.38 -12.98 -15.97 -15.97 -7.39 -5.19 -9.78 -5.79 -24.56 -5.79 -14.38 0 -17.17 0.60 -24.76 5.59 -12.98 8.59 -19.77 22.36 -28.95 58.10 -7.99 30.95 -7.79 28.75 -2.80 29.95 9.58 2 63.70 -1 86.46 -4.79z m110.62 -36.54 c21.17 -11.78 46.72 -29.95 64.09 -45.53 22.76 -20.37 41.13 -41.33 38.54 -43.93 -1 -1 -17.57 -6.39 -36.74 -11.98 -51.32 -14.98 -69.09 -15.37 -85.06 -1.20 -16.97 14.98 -19.77 32.75 -12.38 80.87 5.39 36.94 4.39 34.74 13.18 31.15 3.99 -1.80 12.18 -5.99 18.37 -9.38z m151.95 -177.71 c4.59 -11.78 19.77 -53.91 33.94 -93.85 18.37 -52.11 24.76 -72.48 22.76 -72.88 -2.20 -0.60 -25.36 6.39 -95.24 28.95 -31.15 9.98 -45.13 25.36 -46.92 51.32 -1.60 24.56 -0.20 26.96 44.13 86.86 l25.96 34.94 3.39 -6.99 c2 -3.59 7.39 -16.37 11.98 -28.35z m936.26 -60.70 c20.57 -12.78 30.35 -33.94 31.75 -68.69 1 -27.16 -3.19 -47.72 -14.38 -70.68 -18.17 -36.94 -52.11 -52.51 -81.27 -37.34 -41.13 21.17 -45.13 104.63 -7.39 157.54 17.57 24.56 48.92 32.95 71.28 19.17z m-844.41 -201.67 c13.98 -40.33 45.92 -134.58 45.92 -135.98 0 -2.20 -22.36 3 -65.89 14.78 -51.12 14.18 -61.50 18.97 -70.68 32.95 -10.18 15.18 -10.58 37.54 -1.20 52.71 2 3.19 9.38 11.38 16.37 18.17 16.77 16.37 59.10 52.71 61.30 52.71 1 0 7.39 -15.97 14.18 -35.34z m778.92 -130.78 c17.17 -16.77 28.55 -32.75 39.73 -55.51 6.99 -14.58 15.97 -44.73 13.78 -46.72 -0.40 -0.40 -30.95 -1.20 -67.89 -1.40 -55.71 -0.60 -67.69 -0.40 -70.48 2 -3.19 2.60 -2.20 3.59 9.78 9.78 15.37 8.19 31.55 24.76 38.14 39.34 2.60 5.59 7.39 21.76 10.78 35.94 6.99 30.15 7.39 30.95 9.58 30.95 1 0 8.39 -6.59 16.57 -14.38z m-715.42 -54.91 c1 -3.19 10.18 -28.55 19.97 -56.51 9.98 -27.95 21.76 -61.10 26.16 -73.68 4.59 -12.58 7.99 -23.16 7.59 -23.56 -1 -0.80 -58.50 5.79 -91.25 10.58 -35.34 4.99 -50.92 15.97 -55.71 39.14 -3.59 16.57 0.80 31.15 14.18 45.92 6.79 7.59 73.48 63.30 75.88 63.50 0.60 0 2.20 -2.40 3.19 -5.39z m74.88 -205.46 c18.97 -46.72 39.73 -82.06 65.09 -111.62 6.79 -7.59 12.18 -14.58 12.18 -15.18 0 -1.20 -57.31 -13.98 -80.67 -17.97 -26.16 -4.39 -44.33 0.80 -57.70 16.17 -8.59 10.18 -12.18 22.56 -10.78 37.54 1.20 14.38 5.59 22.96 34.34 69.29 12.18 19.77 23.36 38.14 24.76 40.53 1.40 2.60 2.80 4.39 3.19 3.99 0.20 -0.20 4.59 -10.58 9.58 -22.76z m155.14 -183.50 c25.76 -12.98 57.31 -23.56 82.46 -27.95 l7.59 -1.20 -5.99 -7.39 c-18.37 -23.36 -47.32 -52.91 -56.71 -58.30 -13.58 -7.79 -26.36 -8.19 -38.54 -1 -16.17 9.38 -20.57 22.96 -25.56 77.87 -4.39 47.92 -5.59 44.13 10.18 33.54 7.39 -4.99 19.37 -11.98 26.56 -15.57z"/>
  <path d="M1670.85 326.26 c-10.58 -5.59 -15.37 -24.56 -8.59 -34.14 4.19 -5.99 14.78 -7.79 22.76 -3.79 17.57 9.18 15.57 41.33 -2.40 41.13 -3.59 -0.20 -8.79 -1.40 -11.78 -3.19z"/>
  <path d="M1323.62 299.71 c-15.37 -15.57 1.40 -49.52 31.75 -64.29 7.59 -3.79 12.78 -4.59 28.35 -4.59 17.57 -0.20 19.97 0.20 32.55 6.39 10.38 5.19 15.37 9.18 21.56 17.37 14.38 18.97 16.97 38.54 6.39 46.92 -10.98 8.59 -25.76 3.39 -32.15 -11.38 -5.99 -13.98 -14.18 -20.97 -25.76 -21.96 -12.78 -1.20 -21.76 4.59 -28.55 18.77 -7.39 15.18 -11.18 18.57 -20.37 18.57 -5.99 0 -9.18 -1.40 -13.78 -5.79z"/>
 </g>
</svg>